<svg width="469" height="460" viewBox="0 0 469 460" fill="none" xmlns="http://www.w3.org/2000/svg">
<path d="M9.5 219.5H193.5V403.5H9.5V219.5ZM212.5 389.909V213.908L401 23.5915V199.592L212.5 389.909ZM387.72 10L199.038 200.5H22.7804L211.462 10H387.72Z" stroke="black" stroke-width="19"/>
<path d="M420.978 198.195L461.284 238.5L467.648 244.864M208.195 412.195L248.5 452.5L254.864 458.864" stroke="black" stroke-width="3"/>
<path d="M461.836 240L445.105 244.483L457.353 256.73L461.836 240ZM248.836 453L265.566 448.517L253.318 436.27L248.836 453ZM451.229 248.485L257.321 442.393L259.442 444.515L453.35 250.607L451.229 248.485Z" fill="black"/>
</svg>
